<!-- icon666.com - MILLIONS OF FREE VECTOR ICONS --><svg viewBox="0 0 32 32" xmlns="http://www.w3.org/2000/svg" xmlns:xlink="http://www.w3.org/1999/xlink"><linearGradient id="Orange_Yellow" gradientUnits="userSpaceOnUse" x1="2.594" x2="27.366" y1="31.819" y2="2.589"><stop offset="0" stop-color="#fff33b"></stop><stop offset=".04" stop-color="#fee72e"></stop><stop offset=".117" stop-color="#fed51b"></stop><stop offset=".196" stop-color="#fdca10"></stop><stop offset=".281" stop-color="#fdc70c"></stop><stop offset=".669" stop-color="#f3903f"></stop><stop offset=".888" stop-color="#ed683c"></stop><stop offset="1" stop-color="#e93e3a"></stop></linearGradient><g id="Layer_2" fill="url(#Orange_Yellow)" data-name="Layer 2"><path d="m30.209 13.022-2.764-.592a11.871 11.871 0 0 0 -.827-2l1.535-2.373a1 1 0 0 0 -.132-1.25l-2.829-2.828a1 1 0 0 0 -1.25-.132l-2.373 1.535a11.871 11.871 0 0 0 -2-.827l-.592-2.764a1 1 0 0 0 -.977-.791h-4a1 1 0 0 0 -.978.791l-.592 2.764a11.871 11.871 0 0 0 -2 .827l-2.372-1.535a1 1 0 0 0 -1.25.132l-2.829 2.829a1 1 0 0 0 -.132 1.25l1.535 2.373a11.871 11.871 0 0 0 -.827 2l-2.764.592a1 1 0 0 0 -.791.977v4a1 1 0 0 0 .791.978l2.764.592a11.871 11.871 0 0 0 .827 2l-1.535 2.372a1 1 0 0 0 .132 1.25l2.829 2.829a1 1 0 0 0 1.25.132l2.373-1.535a11.871 11.871 0 0 0 2 .827l.592 2.764a1 1 0 0 0 .977.791h4a1 1 0 0 0 .978-.791l.592-2.764a11.871 11.871 0 0 0 2-.827l2.373 1.535a1 1 0 0 0 1.25-.132l2.829-2.829a1 1 0 0 0 .132-1.25l-1.535-2.373a11.871 11.871 0 0 0 .827-2l2.764-.592a1 1 0 0 0 .79-.977v-4a1 1 0 0 0 -.791-.978zm-1.209 4.169-2.562.549a1 1 0 0 0 -.76.731 9.93 9.93 0 0 1 -1.086 2.629 1 1 0 0 0 .019 1.054l1.424 2.2-1.685 1.681-2.2-1.424a1 1 0 0 0 -1.054-.019 9.93 9.93 0 0 1 -2.625 1.086 1 1 0 0 0 -.731.76l-.549 2.562h-2.382l-.549-2.562a1 1 0 0 0 -.731-.76 9.93 9.93 0 0 1 -2.629-1.086 1 1 0 0 0 -1.054.019l-2.2 1.424-1.681-1.685 1.424-2.2a1 1 0 0 0 .019-1.05 9.93 9.93 0 0 1 -1.086-2.625 1 1 0 0 0 -.76-.731l-2.562-.553v-2.382l2.562-.549a1 1 0 0 0 .76-.731 9.93 9.93 0 0 1 1.086-2.629 1 1 0 0 0 -.019-1.05l-1.424-2.2 1.685-1.685 2.2 1.424a1 1 0 0 0 1.054.019 9.93 9.93 0 0 1 2.625-1.086 1 1 0 0 0 .731-.76l.549-2.562h2.382l.549 2.562a1 1 0 0 0 .731.76 9.93 9.93 0 0 1 2.629 1.086 1 1 0 0 0 1.054-.019l2.2-1.424 1.681 1.685-1.424 2.2a1 1 0 0 0 -.019 1.054 9.93 9.93 0 0 1 1.086 2.625 1 1 0 0 0 .76.731l2.562.549z"></path><path d="m16 9a7 7 0 1 0 7 7 7.008 7.008 0 0 0 -7-7zm0 12a5 5 0 1 1 5-5 5.006 5.006 0 0 1 -5 5z"></path></g></svg>